<?xml version="1.0" encoding="UTF-8"?>
<svg id="Layer_1" xmlns="http://www.w3.org/2000/svg" version="1.1" viewBox="0 0 643.1 216.7">
  <!-- Generator: Adobe Illustrator 29.8.2, SVG Export Plug-In . SVG Version: 2.1.1 Build 3)  -->
  <defs>
    <style>
      .st0 {
        fill: #6240e8;
      }

      .st1 {
        fill: #00b5e2;
      }

      .st2 {
        fill: #351f65;
      }

      .st3 {
        fill: #0fac26;
      }

      .st4 {
        fill: #ca01be;
      }
    </style>
  </defs>
  <path class="st1" d="M575.4,129.7h-57v-57c31.5,0,57,25.5,57,57"/>
  <path class="st3" d="M518.4,101.2c0,15.7-12.8,28.5-28.5,28.5v-57c15.7,0,28.5,12.8,28.5,28.5"/>
  <path class="st0" d="M621.4,30.7v57.3c0,15.7-12.8,28.5-28.5,28.5s-28.5-12.8-28.5-28.5v-2.2c0-30.4,24.7-55.1,55.1-55.1h1.9Z"/>
  <path class="st2" d="M547.8,157.4c0-15.1-12.5-27.3-28.2-27.7h-29.7v27.8c0,15.3,13,27.8,29,27.8s29-12.4,29-27.8"/>
  <path class="st2" d="M186.1,130.7v57h57c0-31.5-25.5-57-57-57"/>
  <path class="st0" d="M489.8,129.6h-57.2c-15.7,0-28.4-12.8-28.4-28.5s12.7-28.5,28.4-28.5h2.2c30.4,0,55,24.7,55,55.1v1.8h0Z"/>
  <path class="st2" d="M100.8,44.7v57.3c0,15.7,12.8,28.5,28.5,28.5h0c15.7,0,28.5-12.8,28.5-28.5v-2.2c0-30.4-24.7-55.1-55.1-55.1h-1.9Z"/>
  <path class="st0" d="M243.2,187.8v-57.3c0-15.7,12.8-28.5,28.5-28.5s28.5,12.8,28.5,28.5v2.2c0,30.4-24.7,55.1-55.1,55.1h-1.9Z"/>
  <path class="st1" d="M348.4,108.6c0,15.3,12.2,27.7,27.4,28.1h28.9v-28.2c0-15.6-12.6-28.2-28.2-28.2s-28.2,12.6-28.2,28.2"/>
  <path class="st4" d="M272.3,102c-15.7,0-28.5-12.8-28.5-28.5h57c0,15.7-12.8,28.5-28.5,28.5"/>
  <path class="st2" d="M272.3,45c15.7,0,28.5,12.8,28.5,28.5h-57c0-15.7,12.8-28.5,28.5-28.5"/>
  <path class="st3" d="M186.3,102.2c0,15.7-12.8,28.5-28.5,28.5v-57c15.7,0,28.5,12.8,28.5,28.5"/>
  <path class="st2" d="M294.7,97.9c4.4-27.3,28.6-47.5,56.8-46.3,28.2,1.2,50.6,23.5,52.6,51-2.8-12-13.3-21.2-26.2-21.7-8.8-.4-16.7,3.3-22.2,9.3-3.9,4.4-6.5,9.9-7.1,16.2h0c-.9,14.9-13.6,26.4-28.6,25.8-15.1-.7-26.9-13.5-26.2-28.6,0-2,.4-3.9.9-5.7"/>
  <path class="st1" d="M213.9,72.9c-15.1,0-27.3,12.5-27.7,28.2h0v29.7h27.8c15.3,0,27.8-13,27.8-29s-12.4-29-27.8-29"/>
  <path class="st4" d="M100.9,44.7h-57v57c31.5,0,57-25.5,57-57"/>
  <path class="st2" d="M546.9,29.3v-13.6h-2.4c-30.4,1.2-54.6,26.3-54.6,57h57.1v-13.6h-.3v-29.8h.3"/>
  <path class="st4" d="M575.5,44.2c0,15.8-12.7,28.6-28.4,28.6s-.4,0-.5,0V15.6h.5c15.7,0,28.4,12.8,28.4,28.6"/>
  <path class="st0" d="M44,73.2c0-15.7-12.8-28.5-28.5-28.5v57c15.7,0,28.5-12.8,28.5-28.5"/>
</svg>